<mxfile host="app.diagrams.net" modified="2023-07-07T17:46:15.578Z" agent="Mozilla/5.0 (Windows NT 10.0; Win64; x64) AppleWebKit/537.36 (KHTML, like Gecko) Chrome/114.0.0.0 Safari/537.36" etag="FMH60XHXlJf3xf4VUEaD" version="21.6.1" type="github">
  <diagram name="第 1 页" id="P0N6TpfOn7c98I0s5jpA">
    <mxGraphModel dx="1050" dy="581" grid="1" gridSize="10" guides="1" tooltips="1" connect="1" arrows="1" fold="1" page="1" pageScale="1" pageWidth="827" pageHeight="1169" math="0" shadow="0">
      <root>
        <mxCell id="0" />
        <mxCell id="1" parent="0" />
        <mxCell id="D1d2dF5Caim7Gf7n9iFw-1" value="&lt;b&gt;&lt;font style=&quot;font-size: 18px;&quot;&gt;master&lt;/font&gt;&lt;/b&gt;" style="ellipse;whiteSpace=wrap;html=1;rounded=0;sketch=1;curveFitting=1;jiggle=2;labelBackgroundColor=none;" parent="1" vertex="1">
          <mxGeometry x="380" y="210" width="120" height="80" as="geometry" />
        </mxCell>
        <mxCell id="D1d2dF5Caim7Gf7n9iFw-2" value="&lt;b&gt;&lt;font style=&quot;font-size: 18px;&quot;&gt;node&lt;/font&gt;&lt;/b&gt;" style="ellipse;whiteSpace=wrap;html=1;rounded=0;sketch=1;curveFitting=1;jiggle=2;labelBackgroundColor=none;" parent="1" vertex="1">
          <mxGeometry x="180" y="350" width="120" height="80" as="geometry" />
        </mxCell>
        <mxCell id="D1d2dF5Caim7Gf7n9iFw-3" value="&lt;b&gt;&lt;font style=&quot;font-size: 18px;&quot;&gt;node&lt;/font&gt;&lt;/b&gt;" style="ellipse;whiteSpace=wrap;html=1;rounded=0;sketch=1;curveFitting=1;jiggle=2;labelBackgroundColor=none;" parent="1" vertex="1">
          <mxGeometry x="380" y="350" width="120" height="80" as="geometry" />
        </mxCell>
        <mxCell id="D1d2dF5Caim7Gf7n9iFw-4" value="&lt;b&gt;&lt;font style=&quot;font-size: 18px;&quot;&gt;node&lt;/font&gt;&lt;/b&gt;" style="ellipse;whiteSpace=wrap;html=1;rounded=0;sketch=1;curveFitting=1;jiggle=2;labelBackgroundColor=none;" parent="1" vertex="1">
          <mxGeometry x="560" y="350" width="120" height="80" as="geometry" />
        </mxCell>
        <mxCell id="D1d2dF5Caim7Gf7n9iFw-8" value="" style="endArrow=classic;html=1;rounded=0;exitX=0.5;exitY=1;exitDx=0;exitDy=0;entryX=0.5;entryY=0;entryDx=0;entryDy=0;sketch=1;curveFitting=1;jiggle=2;labelBackgroundColor=none;fontColor=default;" parent="1" source="D1d2dF5Caim7Gf7n9iFw-1" target="D1d2dF5Caim7Gf7n9iFw-2" edge="1">
          <mxGeometry width="50" height="50" relative="1" as="geometry">
            <mxPoint x="440" y="240" as="sourcePoint" />
            <mxPoint x="260" y="300" as="targetPoint" />
            <Array as="points" />
          </mxGeometry>
        </mxCell>
        <mxCell id="D1d2dF5Caim7Gf7n9iFw-9" value="" style="endArrow=classic;html=1;rounded=0;exitX=0.5;exitY=1;exitDx=0;exitDy=0;entryX=0.5;entryY=0;entryDx=0;entryDy=0;sketch=1;curveFitting=1;jiggle=2;labelBackgroundColor=none;fontColor=default;" parent="1" source="D1d2dF5Caim7Gf7n9iFw-1" target="D1d2dF5Caim7Gf7n9iFw-3" edge="1">
          <mxGeometry width="50" height="50" relative="1" as="geometry">
            <mxPoint x="390" y="250" as="sourcePoint" />
            <mxPoint x="440" y="200" as="targetPoint" />
          </mxGeometry>
        </mxCell>
        <mxCell id="D1d2dF5Caim7Gf7n9iFw-10" value="" style="endArrow=classic;html=1;rounded=0;exitX=0.5;exitY=1;exitDx=0;exitDy=0;entryX=0.5;entryY=0;entryDx=0;entryDy=0;sketch=1;curveFitting=1;jiggle=2;labelBackgroundColor=none;fontColor=default;" parent="1" source="D1d2dF5Caim7Gf7n9iFw-1" target="D1d2dF5Caim7Gf7n9iFw-4" edge="1">
          <mxGeometry width="50" height="50" relative="1" as="geometry">
            <mxPoint x="434" y="301" as="sourcePoint" />
            <mxPoint x="250" y="360" as="targetPoint" />
            <Array as="points" />
          </mxGeometry>
        </mxCell>
      </root>
    </mxGraphModel>
  </diagram>
</mxfile>
